<svg width="227" height="233" viewBox="0 0 227 233" fill="none" xmlns="http://www.w3.org/2000/svg">
<path d="M292.063 64.7947L275.983 94.1358L242.533 94.8805L225.163 66.2841L241.243 36.943L274.693 36.1983L292.063 64.7947Z" stroke="#EF233C" stroke-width="7"/>
<path d="M223.314 105.704L207.234 135.045L173.784 135.79L156.414 107.193L172.494 77.8521L205.944 77.1074L223.314 105.704Z" stroke="#EF233C" stroke-width="7"/>
<path d="M152.063 150.522L135.983 179.863L102.533 180.608L85.1628 152.011L101.243 122.67L134.693 121.926L152.063 150.522Z" stroke="#EF233C" stroke-width="7"/>
<path d="M221.063 180.522L204.983 209.863L171.533 210.608L154.163 182.011L170.243 152.67L203.693 151.926L221.063 180.522Z" fill="#EF233C" stroke="#EF233C" stroke-width="7"/>
<path d="M294.265 -11.2157L278.185 18.1254L244.735 18.8702L227.365 -9.72625L243.445 -39.0674L276.895 -39.8121L294.265 -11.2157Z" stroke="#EF233C" stroke-width="7"/>
<path d="M225.516 29.6936L209.436 59.0347L175.986 59.7795L158.616 31.1831L174.696 1.84192L208.146 1.0972L225.516 29.6936Z" stroke="#EF233C" stroke-width="7"/>
<path d="M152.767 75.6027L136.687 104.944L103.237 105.689L85.8665 77.0921L101.947 47.751L135.397 47.0063L152.767 75.6027Z" stroke="#EF233C" stroke-width="7"/>
<path d="M88.0179 111.512L71.9377 140.853L38.4875 141.598L21.1174 113.001L37.1976 83.66L70.6478 82.9153L88.0179 111.512Z" stroke="#EF233C" stroke-width="7"/>
<path d="M153.718 -1.31665L137.638 28.0245L104.188 28.7692L86.8177 0.172802L102.898 -29.1683L136.348 -29.9131L153.718 -1.31665Z" stroke="#EF233C" stroke-width="7"/>
<path d="M84.969 39.5923L68.8888 68.9335L35.4386 69.6782L18.0685 41.0818L34.1487 11.7407L67.5989 10.9959L84.969 39.5923Z" stroke="#EF233C" stroke-width="7"/>
</svg>
