<svg width="206" height="229" viewBox="0 0 206 229" fill="none" xmlns="http://www.w3.org/2000/svg">
<path d="M-18.1823 127.082L-2.10216 97.7405L31.3481 96.9958L48.7182 125.592L32.638 154.933L-0.812257 155.678L-18.1823 127.082Z" stroke="#EF233C" stroke-width="7"/>
<path d="M53.0685 82.2635L69.1487 52.9223L102.599 52.1776L119.969 80.774L103.889 110.115L70.4386 110.86L53.0685 82.2635Z" stroke="#EF233C" stroke-width="7"/>
<path d="M-15.9315 52.2635L0.148696 22.9223L33.599 22.1776L50.969 50.774L34.8889 80.1152L1.4386 80.8599L-15.9315 52.2635Z" fill="#EF233C" stroke="#EF233C" stroke-width="7"/>
<path d="M-20.3844 203.092L-4.30418 173.751L29.1461 173.006L46.5162 201.602L30.436 230.944L-3.01428 231.688L-20.3844 203.092Z" stroke="#EF233C" stroke-width="7"/>
<path d="M52.3648 157.183L68.445 127.842L101.895 127.097L119.265 155.693L103.185 185.034L69.7349 185.779L52.3648 157.183Z" stroke="#EF233C" stroke-width="7"/>
<path d="M117.114 121.274L133.194 91.9326L166.644 91.1879L184.014 119.784L167.934 149.125L134.484 149.87L117.114 121.274Z" stroke="#EF233C" stroke-width="7"/>
<path d="M51.4136 234.102L67.4938 204.761L100.944 204.016L118.314 232.613L102.234 261.954L68.7837 262.699L51.4136 234.102Z" stroke="#EF233C" stroke-width="7"/>
<path d="M120.163 193.193L136.243 163.852L169.693 163.107L187.063 191.704L170.983 221.045L137.533 221.79L120.163 193.193Z" stroke="#EF233C" stroke-width="7"/>
</svg>
