<svg version="1.2" xmlns="http://www.w3.org/2000/svg" viewBox="0 0 347 420" width="347" height="420">
	<title>player-bg-svg</title>
	<style>
		.s0 { fill: #000000 } 
	</style>
	<path id="Layer" class="s0" d="m36.1 78.3c1.6 7.2 8 36.2 10.7 69.4v0.5c0 0.5 0.1 3 0.2 4.3 0.7 14.7 1.2 27.4 0.7 35.3v0.9c-0.5 11.3-1.6 38.9-2.9 52.3l-0.1 0.8q-0.1 1.3-0.3 2.7v0.3c-0.9 8.4-2.3 21.2-0.8 34.8 1.8 15.5 7.1 29.2 15.7 40.9 25.9 34.9 77.6 48.9 79.8 49.5 15.5 4.1 30.3 11.1 34.2 13.1 3.9-2 18.7-9 34.2-13.1 2.2-0.5 53.9-14.6 79.8-49.5 8.7-11.6 13.9-25.4 15.7-40.9 1.5-13.7 0.1-26.4-0.8-34.8v-0.3q-0.2-1.9-0.4-3.5c-1.3-13.4-2.4-41-2.8-52.3l-0.1-0.9c-0.5-8.1 0-21.3 0.7-35.2l0.3-4.8c2.6-33.3 9-62.2 10.7-69.4l-137.3-42.8z"/>
</svg>