<svg width="347" height="420" viewBox="0 0 347 420" fill="none" xmlns="http://www.w3.org/2000/svg">
<path d="M36.0605 78.31C37.7205 85.45 44.1305 114.51 46.7705 147.74V148.2C46.8105 148.71 46.9305 151.18 47.0005 152.54C47.7105 167.17 48.2405 179.93 47.6805 187.83L47.6505 188.73C47.2305 199.98 46.1205 227.59 44.8005 240.98L44.7105 241.84C44.6305 242.68 44.5405 243.57 44.4305 244.5L44.4005 244.77C43.4805 253.2 42.1005 265.98 43.6305 279.55C45.3905 295.05 50.6805 308.84 59.3305 320.52C85.1905 355.36 136.891 369.45 139.081 370.03C154.591 374.13 169.381 381.07 173.321 383.11C177.151 381.14 192.031 374.13 207.541 370.04C209.721 369.46 261.421 355.36 287.281 320.52C295.951 308.86 301.231 295.08 302.981 279.57C304.531 265.88 303.131 253.19 302.201 244.79L302.181 244.47C302.051 243.24 301.931 242.09 301.821 241.02C300.491 227.59 299.381 199.97 298.971 188.72L298.941 187.83C298.371 179.7 298.941 166.52 299.631 152.59L299.871 147.79C302.491 114.55 308.891 85.57 310.561 78.36L173.311 35.59L36.0605 78.31Z" fill="black"/>
<path d="M338.89 50.58L177.76 0.39L176.46 0H170.13L168.84 0.39L7.74 50.58L0 53L1.92 60.71L4.33 70.34C4.41 70.67 12.62 104.19 15.72 143.48C15.79 144.84 15.85 146.37 15.94 148.03C16.48 158.99 17.29 175.56 16.7 183.67V183.83L16.67 184.22V184.38C16.6 185.97 15.29 223.75 13.66 240.1C13.54 241.25 13.41 242.5 13.27 243.83V243.93C12.18 253.95 10.53 269.09 12.45 285.93C14.75 306.31 21.79 324.53 33.33 340.09C65.12 382.91 124.27 399.56 130.92 401.3C146.55 405.44 161.57 412.7 163.46 413.74L165.95 415.15L167.98 416.32L173.35 419.2L178.72 416.32L180.76 415.15L183.25 413.74C185.14 412.71 200.16 405.44 215.79 401.3C222.44 399.54 281.58 382.91 313.38 340.09C324.92 324.53 331.95 306.3 334.26 285.93C336.16 269.09 334.53 253.95 333.44 243.93V243.83C333.29 242.5 333.15 241.25 333.04 240.1C331.43 223.75 330.1 185.99 330.03 184.38V184.22L330 183.83V183.67C329.39 175.55 330.22 158.99 330.76 148.03C330.84 146.37 330.91 144.86 330.98 143.48C334.08 104.19 342.28 70.67 342.37 70.34L344.78 60.71L346.7 53L338.96 50.58H338.89ZM318.56 78.53C318.24 79.84 310.61 111.32 307.68 148.23V148.53L307.44 152.97C306.79 166.17 306.2 179.72 306.75 187.4L306.78 188.42C307.19 199.6 308.29 227.03 309.6 240.25C309.71 241.35 309.83 242.55 309.97 243.83L309.99 244.15C310.9 252.39 312.38 266.02 310.75 280.45C308.84 297.35 303.06 312.4 293.55 325.18C266.08 362.18 211.84 376.98 209.54 377.59C193.76 381.76 178.8 389 176.51 390.25L173.29 392.08L169.51 389.93C165.88 388.08 151.72 381.44 137.07 377.57C134.77 376.96 80.52 362.16 53.05 325.16C43.56 312.36 37.78 297.31 35.86 280.42C34.23 265.98 35.67 252.69 36.62 243.89L36.65 243.6C36.75 242.71 36.84 241.86 36.92 241.05L37.01 240.19C38.31 227.04 39.41 199.62 39.83 188.44L39.86 187.4C40.41 179.95 39.88 167.38 39.18 152.93C39.1 151.41 38.96 148.49 38.96 148.49V148.21C36.02 111.4 28.4 79.88 28.08 78.56L26.71 73.04L172.28 27.73H174.34L319.9 73.06L318.55 78.53H318.56Z" fill="black"/>
</svg>
